<?xml version="1.0" encoding="utf-8"?>
<!-- Generator: Adobe Illustrator 17.0.0, SVG Export Plug-In . SVG Version: 6.00 Build 0)  -->
<!DOCTYPE svg PUBLIC "-//W3C//DTD SVG 1.1//EN" "http://www.w3.org/Graphics/SVG/1.1/DTD/svg11.dtd">
<svg version="1.1" id="Capa_1" xmlns="http://www.w3.org/2000/svg" xmlns:xlink="http://www.w3.org/1999/xlink" x="0px" y="0px"
	 width="512px" height="512px" viewBox="0 0 512 512" enable-background="new 0 0 512 512" xml:space="preserve">
<g>
	<g id="Layer_2_16_">
		<g>
			<path fill="#FCEE21" d="M307.718,466.34c-4.222,1.052-8.526,1.987-12.799,2.773c-11.169,2.077-18.553,12.819-16.487,23.998
				c1.02,5.5,4.144,10.08,8.384,13.071c4.371,3.076,9.933,4.465,15.601,3.411c5.088-0.944,10.216-2.055,15.248-3.311
				c11.029-2.745,17.748-13.918,14.997-24.942C329.918,470.307,318.754,463.593,307.718,466.34z"/>
			<path fill="#FCEE21" d="M459.927,190.456c1.442,4.345,4.194,7.892,7.671,10.343c5.155,3.631,11.901,4.853,18.338,2.724
				c10.792-3.584,16.64-15.221,13.07-26.008c-1.627-4.917-3.432-9.85-5.354-14.653c-4.222-10.555-16.194-15.693-26.755-11.472
				c-10.549,4.22-15.69,16.195-11.465,26.753C457.048,182.18,458.561,186.324,459.927,190.456z"/>
			<path fill="#FCEE21" d="M374.601,436.953c-3.631,2.397-7.378,4.717-11.154,6.891c-9.849,5.681-13.223,18.271-7.544,28.116
				c1.542,2.678,3.596,4.867,5.961,6.54c6.349,4.467,14.973,5.137,22.152,1c4.488-2.589,8.951-5.342,13.275-8.202
				c9.481-6.264,12.09-19.034,5.823-28.519C396.85,433.292,384.085,430.685,374.601,436.953z"/>
			<path fill="#FCEE21" d="M511.804,247.943c-0.448-11.36-10.017-20.203-21.38-19.759c-11.349,0.448-20.198,10.02-19.753,21.376
				c0.171,4.342,0.215,8.749,0.114,13.086c-0.16,7.124,3.325,13.475,8.74,17.292c3.226,2.272,7.141,3.646,11.386,3.743
				c11.36,0.252,20.775-8.759,21.027-20.125C512.052,258.373,512.009,253.122,511.804,247.943z"/>
			<path fill="#FCEE21" d="M456.568,382.807c-9.11-6.835-21.998-4.979-28.82,4.114c-2.613,3.482-5.364,6.922-8.182,10.233
				c-7.363,8.651-6.323,21.644,2.328,29.013c0.493,0.418,0.992,0.802,1.509,1.163c8.6,6.063,20.553,4.67,27.506-3.49
				c3.365-3.951,6.644-8.06,9.767-12.219C467.499,402.529,465.653,389.632,456.568,382.807z"/>
			<path fill="#FCEE21" d="M486.824,308.403c-10.846-3.401-22.397,2.637-25.796,13.483c-1.301,4.144-2.743,8.307-4.299,12.385
				c-3.417,8.977-0.143,18.853,7.363,24.146c1.377,0.967,2.893,1.787,4.541,2.41c10.62,4.052,22.512-1.276,26.56-11.9
				c1.848-4.848,3.563-9.802,5.113-14.728C503.701,323.351,497.668,311.804,486.824,308.403z"/>
			<path fill="#FCEE21" d="M217.918,469.299c-18.402-3.304-36.055-8.93-52.794-16.778c-0.198-0.103-0.375-0.221-0.583-0.316
				c-3.945-1.857-7.883-3.845-11.699-5.923c-0.013-0.015-0.037-0.025-0.058-0.034c-7.003-3.857-13.838-8.124-20.478-12.798
				C35.483,365.246,12.203,230.986,80.412,134.164c14.832-21.046,32.78-38.604,52.79-52.52c0.247-0.172,0.493-0.342,0.737-0.515
				c70.512-48.585,166.257-51.859,241.13-1.934l-16.081,23.235c-4.471,6.467-1.72,11.18,6.106,10.476l69.852-6.254
				c7.836-0.704,12.523-7.483,10.415-15.051l-18.758-67.584c-2.1-7.577-7.476-8.483-11.951-2.017l-16.118,23.29
				C343.588,8.406,277.685-5.658,212.273,5.685c-6.588,1.14-13.084,2.536-19.491,4.16c-0.05,0.009-0.089,0.014-0.129,0.023
				c-0.248,0.061-0.499,0.141-0.74,0.208C135.508,24.561,86.295,57.459,51.178,104.398c-0.296,0.351-0.601,0.694-0.88,1.076
				c-1.168,1.573-2.327,3.182-3.461,4.791c-1.856,2.637-3.685,5.34-5.435,8.043c-0.219,0.326-0.386,0.657-0.578,0.986
				C11.845,164.2-2.133,216.115,0.264,268.968c0.006,0.174-0.004,0.349,0,0.527c0.232,5.163,0.642,10.397,1.197,15.55
				c0.03,0.332,0.103,0.647,0.16,0.98c0.575,5.182,1.295,10.375,2.199,15.568c9.183,52.981,34.176,100.656,71.626,137.751
				c0.087,0.087,0.177,0.182,0.265,0.272c0.031,0.034,0.065,0.052,0.095,0.084c10.062,9.924,21.006,19.103,32.79,27.403
				c30.839,21.73,65.179,36.094,102.058,42.712c11.19,2.011,21.879-5.438,23.886-16.622
				C236.547,482.001,229.105,471.303,217.918,469.299z"/>
			<path fill="#FCEE21" d="M243.369,91.568c-9.204,0-16.66,7.462-16.66,16.653v165.912l151.74,78.441
				c2.442,1.265,5.057,1.86,7.63,1.86c6.027,0,11.848-3.282,14.808-9.008c4.221-8.173,1.027-18.214-7.146-22.435L260.01,253.853
				V108.221C260.009,99.03,252.563,91.568,243.369,91.568z"/>
		</g>
	</g>
</g>
</svg>
