<?xml version="1.0" encoding="utf-8"?>
<!-- Generator: Adobe Illustrator 17.0.0, SVG Export Plug-In . SVG Version: 6.00 Build 0)  -->
<!DOCTYPE svg PUBLIC "-//W3C//DTD SVG 1.1//EN" "http://www.w3.org/Graphics/SVG/1.1/DTD/svg11.dtd">
<svg version="1.1" id="Layer_1" xmlns="http://www.w3.org/2000/svg" xmlns:xlink="http://www.w3.org/1999/xlink" x="0px" y="0px"
	 width="1366px" height="768px" viewBox="0 0 1366 768" enable-background="new 0 0 1366 768" xml:space="preserve">
<g>
	<g>
		<g>
			<g>
				<path fill="#FFFFFF" d="M683,751.5c-203.25,0-367.5-164.25-367.5-367.5S479.75,16.5,683,16.5s367.5,164.25,367.5,367.5
					S886.25,751.5,683,751.5z M683,47.85c-186.15,0-336.15,150-336.15,336.15S498.5,720.15,683,720.15
					c186.15,0,336.15-151.65,336.15-336.15C1019.15,197.85,869.15,47.85,683,47.85z"/>
			</g>
			<g>
				<polygon fill="#FFFFFF" points="698.6,399.6 498.5,399.6 498.5,368.4 667.4,368.4 667.4,97.8 698.6,97.8 				"/>
			</g>
		</g>
	</g>
</g>
</svg>
