<?xml version="1.0" encoding="utf-8"?>
<!-- Generator: Adobe Illustrator 17.0.0, SVG Export Plug-In . SVG Version: 6.00 Build 0)  -->
<!DOCTYPE svg PUBLIC "-//W3C//DTD SVG 1.1//EN" "http://www.w3.org/Graphics/SVG/1.1/DTD/svg11.dtd">
<svg version="1.1" id="Capa_1" xmlns="http://www.w3.org/2000/svg" xmlns:xlink="http://www.w3.org/1999/xlink" x="0px" y="0px"
	 width="512px" height="512px" viewBox="0 0 512 512" enable-background="new 0 0 512 512" xml:space="preserve">
<g>
	<g>
		<path fill="#FFFFFF" d="M356.446,338.516H188.997c-4.043,0-7.324-3.281-7.324-7.324c0-4.043,3.281-7.324,7.324-7.324h167.449
			c4.043,0,7.324,3.281,7.324,7.324C363.77,335.235,360.489,338.516,356.446,338.516z"/>
		<path fill="#FFFFFF" d="M149.167,378.36c-26.016,0-47.183-21.153-47.183-47.183s21.153-47.183,47.183-47.183
			c26.001,0,47.169,21.153,47.169,47.183S175.169,378.36,149.167,378.36z M149.167,298.657c-17.945,0-32.535,14.59-32.535,32.535
			c0,17.945,14.59,32.535,32.535,32.535c17.93,0,32.52-14.59,32.52-32.535C181.687,313.247,167.083,298.657,149.167,298.657z"/>
		<path fill="#FFFFFF" d="M396.305,378.36c-26.016,0-47.183-21.153-47.183-47.183s21.153-47.183,47.183-47.183
			s47.183,21.153,47.183,47.183S422.321,378.36,396.305,378.36z M396.305,298.657c-17.945,0-32.535,14.59-32.535,32.535
			c0,17.945,14.59,32.535,32.535,32.535s32.535-14.59,32.535-32.535C428.84,313.247,414.235,298.657,396.305,298.657z"/>
	</g>
	<path fill="#FFFFFF" d="M356.504,338.516H189.026c-4.043,0-7.324-3.281-7.324-7.324c0-4.043,3.281-7.324,7.324-7.324h167.478
		c4.043,0,7.324,3.281,7.324,7.324C363.829,335.235,360.548,338.516,356.504,338.516z"/>
	<path fill="#FFFFFF" d="M471.321,338.516H436.12c-4.043,0-7.324-3.281-7.324-7.324c0-4.043,3.281-7.324,7.324-7.324h35.201
		c9.068,0,16.67-6.504,18.062-15.469l7.808-49.996c0.542-3.501-0.322-6.987-2.476-9.815c-2.139-2.813-5.23-4.6-8.76-5.039
		l-97.575-11.895c-1.406-0.176-2.739-0.747-3.823-1.655l-88.2-74.137c-5.816-4.893-13.213-7.588-20.83-7.588H137.551
		c-6.812,0-13.067,3.428-16.743,9.17l-41.236,64.527c-0.923,1.48-2.373,2.564-4.043,3.062l-49.805,15.015
		c-7.398,2.227-12.056,9.653-10.869,17.3l6.973,44.664c1.978,12.642,12.7,21.827,25.503,21.827h61.949
		c4.043,0,7.324,3.281,7.324,7.324c0,4.043-3.281,7.324-7.324,7.324H47.301c-20.069,0-36.9-14.385-39.976-34.219l-6.973-44.664
		c-2.3-14.824,6.768-29.253,21.109-33.575l47.227-14.238l39.786-62.257c6.372-9.946,17.241-15.894,29.078-15.894h138.005
		c11.045,0,21.783,3.911,30.235,11.016l86.53,72.731l95.421,11.631c7.5,0.923,14.121,4.717,18.662,10.737
		c4.556,6.006,6.416,13.433,5.259,20.904l-7.808,49.996C501.35,326.797,487.654,338.516,471.321,338.516z"/>
	<path fill="#FFFFFF" d="M309.966,237.367H141.975c-4.043,0-7.324-3.281-7.324-7.324s3.281-7.324,7.324-7.324h167.991
		c4.043,0,7.324,3.281,7.324,7.324S314.009,237.367,309.966,237.367z"/>
</g>
</svg>
