<?xml version="1.0" encoding="utf-8"?>
<!-- Generator: Adobe Illustrator 17.0.0, SVG Export Plug-In . SVG Version: 6.00 Build 0)  -->
<!DOCTYPE svg PUBLIC "-//W3C//DTD SVG 1.1//EN" "http://www.w3.org/Graphics/SVG/1.1/DTD/svg11.dtd">
<svg version="1.1" id="Layer_1" xmlns="http://www.w3.org/2000/svg" xmlns:xlink="http://www.w3.org/1999/xlink" x="0px" y="0px"
	 width="1366px" height="768px" viewBox="0 0 1366 768" enable-background="new 0 0 1366 768" xml:space="preserve">
<g>
	<g>
		<path fill="#FFFFFF" d="M953.096,604.681H506.272c-10.788,0-19.544-8.756-19.544-19.544c0-10.789,8.756-19.544,19.544-19.544
			h446.824c10.788,0,19.544,8.756,19.544,19.544C972.64,595.925,963.884,604.681,953.096,604.681z"/>
		<path fill="#FFFFFF" d="M399.989,711.003c-69.422,0-125.905-56.444-125.905-125.905s56.444-125.905,125.905-125.905
			c69.383,0,125.866,56.444,125.866,125.905S469.372,711.003,399.989,711.003z M399.989,498.321
			c-47.884,0-86.816,38.932-86.816,86.816s38.932,86.816,86.816,86.816c47.845,0,86.777-38.932,86.777-86.816
			S447.795,498.321,399.989,498.321z"/>
		<path fill="#FFFFFF" d="M1059.456,711.003c-69.422,0-125.905-56.444-125.905-125.905s56.444-125.905,125.905-125.905
			s125.905,56.444,125.905,125.905S1128.878,711.003,1059.456,711.003z M1059.456,498.321c-47.884,0-86.816,38.932-86.816,86.816
			s38.932,86.816,86.816,86.816c47.884,0,86.816-38.932,86.816-86.816S1107.301,498.321,1059.456,498.321z"/>
	</g>
	<path fill="#FFFFFF" d="M953.252,604.681H506.35c-10.789,0-19.544-8.756-19.544-19.544c0-10.789,8.756-19.544,19.544-19.544
		h446.902c10.789,0,19.544,8.756,19.544,19.544C972.796,595.925,964.04,604.681,953.252,604.681z"/>
	<path fill="#FFFFFF" d="M1259.63,604.681h-93.93c-10.788,0-19.544-8.756-19.544-19.544c0-10.789,8.756-19.544,19.544-19.544h93.93
		c24.196,0,44.483-17.355,48.197-41.278l20.834-133.41c1.446-9.342-0.86-18.645-6.606-26.189
		c-5.707-7.505-13.955-12.274-23.375-13.447l-260.37-31.74c-3.753-0.469-7.31-1.993-10.202-4.417L792.753,117.283
		c-15.518-13.056-35.258-20.248-55.584-20.248H368.992c-18.176,0-34.867,9.147-44.678,24.47L214.278,293.691
		c-2.463,3.948-6.332,6.841-10.789,8.17L70.588,341.926c-19.74,5.942-32.17,25.76-29.004,46.164L60.19,507.272
		c5.277,33.734,33.89,58.242,68.054,58.242H293.55c10.789,0,19.544,8.756,19.544,19.544c0,10.789-8.756,19.544-19.544,19.544
		H128.166c-53.552,0-98.465-38.385-106.673-91.311L2.886,394.11c-6.137-39.558,18.059-78.06,56.327-89.591l126.022-37.994
		L291.4,100.396c17.004-26.541,46.008-42.411,77.591-42.411h368.256c29.473,0,58.125,10.437,80.679,29.395l230.897,194.076
		l254.624,31.036c20.014,2.463,37.682,12.587,49.799,28.652c12.157,16.026,17.121,35.844,14.033,55.78l-20.834,133.41
		C1339.762,573.41,1303.214,604.681,1259.63,604.681z"/>
	<path fill="#FFFFFF" d="M829.067,334.773h-448.27c-10.789,0-19.544-8.756-19.544-19.544s8.756-19.544,19.544-19.544h448.27
		c10.788,0,19.544,8.756,19.544,19.544S839.855,334.773,829.067,334.773z"/>
</g>
</svg>
