<?xml version="1.0" encoding="utf-8"?>
<!-- Generator: Adobe Illustrator 17.0.0, SVG Export Plug-In . SVG Version: 6.00 Build 0)  -->
<!DOCTYPE svg PUBLIC "-//W3C//DTD SVG 1.1//EN" "http://www.w3.org/Graphics/SVG/1.1/DTD/svg11.dtd">
<svg version="1.1" id="Capa_1" xmlns="http://www.w3.org/2000/svg" xmlns:xlink="http://www.w3.org/1999/xlink" x="0px" y="0px"
	 width="512px" height="512px" viewBox="0 0 512 512" enable-background="new 0 0 512 512" xml:space="preserve">
<g id="Gas_Pump">
	<path fill="#FFD400" stroke="#FFD400" stroke-width="4" stroke-miterlimit="10" d="M428.622,458.026L428.622,458.026
		c-2.875-0.013-5.181-2.331-5.181-5.181l0.453-428.128c0-5.945-5.543-10.802-12.356-10.802l-225.701-0.181c-0.013,0-0.013,0-0.026,0
		c-6.8,0-12.356,4.818-12.356,10.763l-0.453,428.128c-0.013,2.862-2.331,5.181-5.181,5.181l0,0
		c-2.875-0.013-5.181-2.331-5.181-5.181l0.453-428.141c0.013-11.657,10.206-21.125,22.718-21.125c0.013,0,0.026,0,0.039,0
		l225.701,0.194c12.525,0.026,22.718,9.507,22.718,21.177l-0.453,428.128C433.802,455.708,431.484,458.026,428.622,458.026z"/>
	<path fill="#FFD400" stroke="#FFD400" stroke-width="4" stroke-miterlimit="10" d="M136.956,511c-4.119,0-7.473-3.264-7.473-7.266
		l-0.052-40.76c0-8.419,7.292-15.283,16.268-15.309l22.226-0.013l0,0c2.862,0,5.168,2.331,5.181,5.181
		c0,2.862-2.331,5.168-5.181,5.181l-22.213,0.013c-3.251,0-5.906,2.215-5.906,4.922l0.039,37.664l164.775-0.065
		c2.862,0,5.181,2.331,5.181,5.181c0,2.849-2.331,5.181-5.181,5.181L136.956,511z"/>
	<path fill="#FFD400" stroke="#FFD400" stroke-width="4" stroke-miterlimit="10" d="M459.59,511l-167.651-0.065
		c-2.862,0-5.181-2.331-5.181-5.181c0-2.849,2.331-5.181,5.181-5.181l0,0l164.775,0.065l0.039-37.677
		c0-2.694-2.655-4.909-5.919-4.909l-22.2-0.013c-2.862-0.013-5.181-2.331-5.181-5.181c0.013-2.862,2.331-5.181,5.181-5.181l0,0
		l22.213,0.013c8.976,0.026,16.281,6.877,16.281,15.296l-0.052,40.786C467.063,507.736,463.708,511,459.59,511z"/>
	<path fill="#FFD400" stroke="#FFD400" stroke-width="4" stroke-miterlimit="10" d="M391.242,151.09c-0.013,0-0.026,0-0.039,0
		l-182.014-0.155c-4.753,0-8.626-3.886-8.626-8.639l0.104-90.444c0-4.753,3.873-8.626,8.626-8.626l182.04,0.168
		c4.753,0,8.626,3.886,8.626,8.639l-0.104,90.431c0,2.318-0.907,4.494-2.552,6.126C395.672,150.209,393.522,151.09,391.242,151.09z
		 M210.937,140.586l178.556,0.142l0.091-86.973l-178.556-0.155L210.937,140.586z"/>
	<path fill="#FFD400" stroke="#FFD400" stroke-width="4" stroke-miterlimit="10" d="M100.574,397.307c-0.026,0-0.039,0-0.052,0
		c-9.377-0.013-16.682-2.603-21.772-7.719c-7.771-7.823-7.719-18.884-7.693-23.611c0-6.58,0.13-125.207,0.13-125.207H81.56
		c0,0-0.13,118.627-0.13,124.715c-0.026,4.274-0.065,12.032,4.663,16.799c3.057,3.083,7.914,4.65,14.416,4.65
		c0.013,0,0.039,0,0.052,0c6.735,0,11.67-1.645,14.701-4.909c3.911-4.222,3.575-9.973,3.575-10.012
		c0.013-1.308,2.564-71.391,2.564-85.561c0-6.476,2.448-12.071,7.098-16.19c12.525-11.1,37.159-8.509,39.918-8.186
		c2.836,0.337,4.857,2.927,4.533,5.764c-0.337,2.836-2.798,4.896-5.764,4.533c-6.204-0.751-24.13-1.166-31.81,5.66
		c-2.448,2.176-3.588,4.857-3.588,8.419c0,14.364-2.487,82.452-2.603,85.354l0,0c0.039,0,0.648,9.766-6.308,17.265
		C117.8,394.523,110.3,397.307,100.574,397.307z"/>
	<path fill="#FFD400" stroke="#FFD400" stroke-width="4" stroke-miterlimit="10" d="M98.955,245.976L98.955,245.976l-42.638-0.039
		c-2.629-0.013-4.831-1.956-5.142-4.572l-9.947-82.841c0.013-1.502,1.062-14.843,21.241-18.534c3.51-0.648,8.017-0.868,11.527-0.945
		c30.023,0.026,33.934,13.742,34.284,15.296c0.104,0.453,0.142,0.92,0.117,1.373l-4.261,85.315
		C103.993,243.8,101.713,245.976,98.955,245.976z M60.915,235.589l33.118,0.026l3.976-79.279c-0.881-1.334-5.543-6.89-24.013-6.89
		c-3.64,0.207-6.761,0.246-9.636,0.777c-11.812,2.15-12.771,7.965-12.797,8.225L60.915,235.589z"/>
	<path fill="#FFD400" stroke="#FFD400" stroke-width="4" stroke-miterlimit="10" d="M72.04,144.485L72.04,144.485
		c-2.875-0.013-5.181-2.331-5.181-5.181c0.039-29.841,16.06-43.985,29.492-50.616c14.118-6.942,28.08-7.059,28.87-7.059
		c0,0,0,0,0.013,0c2.862,0.013,5.155,2.331,5.155,5.181s-2.318,5.168-5.168,5.181c-1.956,0-47.948,0.635-47.987,47.301
		C77.221,142.166,74.903,144.485,72.04,144.485z"/>
</g>
</svg>
