<?xml version="1.0" encoding="utf-8"?>
<!-- Generator: Adobe Illustrator 17.0.0, SVG Export Plug-In . SVG Version: 6.00 Build 0)  -->
<!DOCTYPE svg PUBLIC "-//W3C//DTD SVG 1.1//EN" "http://www.w3.org/Graphics/SVG/1.1/DTD/svg11.dtd">
<svg version="1.1" id="Layer_1" xmlns="http://www.w3.org/2000/svg" xmlns:xlink="http://www.w3.org/1999/xlink" x="0px" y="0px"
	 width="512px" height="512px" viewBox="0 0 512 512" enable-background="new 0 0 512 512" xml:space="preserve">
<g>
	<g>
		<g>
			<path fill="#FFD400" d="M246.004,332.816c-0.01,0.171-0.101,0.304-0.101,0.475v117.724c0,5.574,4.513,10.097,10.097,10.097
				s10.097-4.523,10.097-10.097V333.291c0-0.171-0.091-0.304-0.091-0.475c87.241-5.209,156.668-77.627,156.668-166.15
				C422.675,74.76,347.915,0,256.01,0S89.345,74.76,89.345,166.665C89.345,255.187,158.763,327.595,246.004,332.816L246.004,332.816
				z M256.01,20.206c80.768,0,146.471,65.703,146.471,146.471c0,80.758-65.703,146.461-146.471,146.461
				s-146.471-65.705-146.471-146.463C109.541,85.907,175.242,20.206,256.01,20.206L256.01,20.206z"/>
			<path fill="#FFD400" d="M357.438,423.236c-5.483-1.101-10.795,2.413-11.916,7.875c-1.121,5.463,2.402,10.795,7.865,11.916
				c39.339,8.016,48.729,17.892,49.083,20.043c-1.262,7.906-48.204,28.727-146.471,28.727s-145.218-20.811-146.471-28.656
				c0.354-2.211,9.735-12.087,49.073-20.103c5.463-1.111,8.986-6.453,7.865-11.916c-1.111-5.473-6.433-8.986-11.916-7.875
				c-43.276,8.825-65.228,22.234-65.228,39.864c0,38.673,109.02,48.89,166.665,48.89s166.665-10.217,166.665-48.89
				C422.675,445.48,400.725,432.061,357.438,423.236z"/>
		</g>
	</g>
</g>
</svg>
