<?xml version="1.0" encoding="utf-8"?>
<!-- Generator: Adobe Illustrator 17.0.0, SVG Export Plug-In . SVG Version: 6.00 Build 0)  -->
<!DOCTYPE svg PUBLIC "-//W3C//DTD SVG 1.1//EN" "http://www.w3.org/Graphics/SVG/1.1/DTD/svg11.dtd">
<svg version="1.1" id="Layer_1" xmlns="http://www.w3.org/2000/svg" xmlns:xlink="http://www.w3.org/1999/xlink" x="0px" y="0px"
	 width="1366px" height="768px" viewBox="0 0 1366 768" enable-background="new 0 0 1366 768" xml:space="preserve">
<g>
	<path fill="#FFFFFF" d="M1001.537,130.789L889.933,19.185c-1.561-1.561-3.68-2.439-5.888-2.439H459.284
		c-4.601,0-8.329,3.73-8.329,8.329V744.67c0,4.599,3.728,8.329,8.329,8.329h536.364c4.601,0,8.329-3.73,8.329-8.329V136.679
		C1003.977,134.47,1003.101,132.351,1001.537,130.789z M892.373,45.182l83.168,83.168h-83.168V45.182z M987.32,736.341H467.613
		V33.404h408.103v103.275c0,4.599,3.728,8.329,8.329,8.329H987.32V736.341z"/>
	<path fill="#FFFFFF" d="M618.361,163.331h-76.623c-4.601,0-8.329,3.73-8.329,8.329v76.623c0,4.599,3.728,8.329,8.329,8.329h76.623
		c4.601,0,8.329-3.73,8.329-8.329v-76.623C626.69,167.06,622.962,163.331,618.361,163.331z M610.033,239.954h-59.966v-59.966h59.966
		V239.954z"/>
	<path fill="#FFFFFF" d="M618.361,275.986h-76.623c-4.601,0-8.329,3.73-8.329,8.329v76.623c0,4.599,3.728,8.329,8.329,8.329h76.623
		c4.601,0,8.329-3.73,8.329-8.329v-76.623C626.69,279.715,622.962,275.986,618.361,275.986z M610.033,352.609h-59.966v-59.966
		h59.966V352.609z"/>
	<path fill="#FFFFFF" d="M618.361,388.64h-76.623c-4.601,0-8.329,3.73-8.329,8.329v76.623c0,4.599,3.728,8.329,8.329,8.329h76.623
		c4.601,0,8.329-3.73,8.329-8.329v-76.623C626.69,392.368,622.962,388.64,618.361,388.64z M610.033,465.264h-59.966v-59.966h59.966
		V465.264z"/>
	<path fill="#FFFFFF" d="M618.361,501.295h-76.623c-4.601,0-8.329,3.73-8.329,8.329v76.623c0,4.599,3.728,8.329,8.329,8.329h76.623
		c4.601,0,8.329-3.73,8.329-8.329v-76.623C626.69,505.025,622.962,501.295,618.361,501.295z M610.033,577.919h-59.966v-59.966
		h59.966V577.919z"/>
	<path fill="#FFFFFF" d="M666.667,248.283c0,4.599,3.728,8.329,8.329,8.329h238.199c4.601,0,8.329-3.73,8.329-8.329
		s-3.728-8.329-8.329-8.329H674.996C670.395,239.954,666.667,243.684,666.667,248.283z"/>
	<path fill="#FFFFFF" d="M913.195,352.609H674.996c-4.601,0-8.329,3.73-8.329,8.329c0,4.599,3.728,8.329,8.329,8.329h238.199
		c4.601,0,8.329-3.73,8.329-8.329C921.524,356.339,917.796,352.609,913.195,352.609z"/>
	<path fill="#FFFFFF" d="M913.195,465.264H674.996c-4.601,0-8.329,3.73-8.329,8.329s3.728,8.329,8.329,8.329h238.199
		c4.601,0,8.329-3.73,8.329-8.329S917.796,465.264,913.195,465.264z"/>
	<path fill="#FFFFFF" d="M913.195,577.919H674.996c-4.601,0-8.329,3.73-8.329,8.329s3.728,8.329,8.329,8.329h238.199
		c4.601,0,8.329-3.73,8.329-8.329S917.796,577.919,913.195,577.919z"/>
	<path fill="#FFFFFF" d="M570.102,341.957c1.344,2.688,4.033,4.443,7.034,4.592c0.138,0.007,0.278,0.01,0.416,0.01
		c2.847,0,5.51-1.458,7.041-3.881l19.989-31.649c2.457-3.888,1.294-9.033-2.595-11.489c-3.889-2.457-9.033-1.294-11.489,2.595
		l-12.103,19.163l-2.057-4.114c-2.057-4.113-7.058-5.782-11.174-3.725c-4.114,2.057-5.782,7.059-3.723,11.174L570.102,341.957z"/>
	<path fill="#FFFFFF" d="M825.744,121.687c0-4.599-3.728-8.329-8.329-8.329H637.517c-4.601,0-8.329,3.73-8.329,8.329
		s3.728,8.329,8.329,8.329h179.899C822.016,130.016,825.744,126.287,825.744,121.687z"/>
</g>
</svg>
