<?xml version="1.0" encoding="utf-8"?>
<!-- Generator: Adobe Illustrator 17.0.0, SVG Export Plug-In . SVG Version: 6.00 Build 0)  -->
<!DOCTYPE svg PUBLIC "-//W3C//DTD SVG 1.1//EN" "http://www.w3.org/Graphics/SVG/1.1/DTD/svg11.dtd">
<svg version="1.1" id="Capa_1" xmlns="http://www.w3.org/2000/svg" xmlns:xlink="http://www.w3.org/1999/xlink" x="0px" y="0px"
	 width="512px" height="512px" viewBox="0 0 512 512" enable-background="new 0 0 512 512" xml:space="preserve">
<g>
	<path fill="#FFD400" d="M410.123,326.318c-20.65-12.438-33.483-34.947-33.483-58.736V165.778c0-48.72-27.288-90.885-67.28-111.074
		c0.009-0.414,0.101-0.801,0.101-1.215C309.461,23.992,285.469,0,255.982,0c-29.497,0-53.489,23.992-53.489,53.498
		c0,0.368,0.083,0.7,0.092,1.059c-40.176,20.033-67.225,61.774-67.225,108.082v104.952c0,5.091,4.124,9.206,9.206,9.206h107.502
		c5.082,0,9.206-4.115,9.206-9.206s-4.124-9.206-9.206-9.206h-98.296v-95.746c0-47.615,33.695-89.605,80.123-99.842
		c4.962-1.096,8.102-6.003,7.006-10.965c-1.105-4.962-6.012-8.111-10.974-7.015c-2.845,0.626-5.616,1.418-8.378,2.237
		c3.047-16.277,17.289-28.641,34.432-28.641c17.17,0,31.44,12.429,34.432,28.751c-9.133-2.762-18.67-4.576-28.595-5.045
		c-4.861-0.203-9.381,3.683-9.63,8.764c-0.239,5.082,3.683,9.381,8.764,9.63c54.538,2.569,97.274,48.803,97.274,105.265v101.803
		c0,30.206,16.249,58.764,42.395,74.516c25.391,15.264,41.52,40.94,44.347,69.894H67.022c2.836-28.954,18.956-54.63,44.347-69.904
		c11.204-6.739,20.917-16.047,28.079-26.91c2.799-4.244,1.63-9.952-2.615-12.76c-4.235-2.79-9.961-1.62-12.751,2.615
		c-5.662,8.589-13.349,15.936-22.215,21.276c-33.631,20.236-53.719,55.707-53.719,94.889c0,5.091,4.124,9.206,9.206,9.206h397.262
		c5.091,0,9.206-4.115,9.206-9.206C463.842,382.016,443.754,346.553,410.123,326.318z"/>
	<path fill="#FFD400" d="M308.936,440.651c-5.091,0-9.206,4.115-9.206,9.206c0,24.111-19.619,43.73-43.721,43.73
		c-24.111,0-43.73-19.619-43.73-43.73c0-5.091-4.124-9.206-9.206-9.206c-5.082,0-9.206,4.115-9.206,9.206
		c0,34.266,27.877,62.143,62.143,62.143s62.133-27.877,62.133-62.143C318.143,444.775,314.018,440.651,308.936,440.651z"/>
</g>
</svg>
