<?xml version="1.0" encoding="utf-8"?>
<!-- Generator: Adobe Illustrator 17.0.0, SVG Export Plug-In . SVG Version: 6.00 Build 0)  -->
<!DOCTYPE svg PUBLIC "-//W3C//DTD SVG 1.1//EN" "http://www.w3.org/Graphics/SVG/1.1/DTD/svg11.dtd">
<svg version="1.1" id="Layer_1" xmlns="http://www.w3.org/2000/svg" xmlns:xlink="http://www.w3.org/1999/xlink" x="0px" y="0px"
	 width="512px" height="512px" viewBox="0 0 512 512" enable-background="new 0 0 512 512" xml:space="preserve">
<g>
	<path fill="#FFD400" d="M272.19,1.989c-3.836,0-7.423,1.888-9.594,5.05c-6.344,9.24-155.384,227.569-155.384,337.995
		c0,90.968,74.008,164.976,164.976,164.976s164.975-74.008,164.975-164.976c0-110.425-149.038-328.755-155.383-337.995
		C279.613,3.879,276.024,1.989,272.19,1.989L272.19,1.989z M272.19,486.737c-78.135,0-141.703-63.567-141.703-141.703
		c0-87.83,108.413-259.726,141.703-310.432c33.289,50.706,141.701,222.601,141.701,310.432
		C413.891,423.17,350.324,486.737,272.19,486.737z"/>
	<path fill="#FFD400" d="M260.555,444.065c0,6.427,5.209,11.637,11.637,11.637c61.024,0,110.672-49.645,110.672-110.664
		c0-6.427-5.209-11.637-11.637-11.637c-6.428,0-11.637,5.21-11.637,11.637c0,48.188-39.207,87.391-87.398,87.391
		C265.763,432.428,260.555,437.638,260.555,444.065z"/>
	<path fill="#FFD400" d="M500.363,49.12H477.75V26.506c0-6.427-5.209-11.637-11.637-11.637c-6.428,0-11.637,5.21-11.637,11.637
		V49.12h-22.615c-6.428,0-11.637,5.21-11.637,11.637s5.209,11.637,11.637,11.637h22.615v22.615c0,6.427,5.209,11.637,11.637,11.637
		c6.428,0,11.637-5.21,11.637-11.637V72.394h22.613c6.428,0,11.637-5.21,11.637-11.637S506.791,49.12,500.363,49.12z"/>
	<path fill="#FFD400" d="M80.14,399.523H57.525v-22.614c0-6.427-5.209-11.637-11.637-11.637s-11.637,5.21-11.637,11.637v22.614
		H11.637C5.209,399.523,0,404.734,0,411.16c0,6.427,5.209,11.637,11.637,11.637h22.614v22.615c0,6.427,5.209,11.637,11.637,11.637
		s11.637-5.21,11.637-11.637v-22.615H80.14c6.428,0,11.637-5.21,11.637-11.637C91.777,404.734,86.568,399.523,80.14,399.523z"/>
</g>
</svg>
