<?xml version="1.0" encoding="utf-8"?>
<!-- Generator: Adobe Illustrator 17.0.0, SVG Export Plug-In . SVG Version: 6.00 Build 0)  -->
<!DOCTYPE svg PUBLIC "-//W3C//DTD SVG 1.1//EN" "http://www.w3.org/Graphics/SVG/1.1/DTD/svg11.dtd">
<svg version="1.1" id="Capa_1" xmlns="http://www.w3.org/2000/svg" xmlns:xlink="http://www.w3.org/1999/xlink" x="0px" y="0px"
	 width="1366px" height="768px" viewBox="0 0 1366 768" enable-background="new 0 0 1366 768" xml:space="preserve">
<g>
	<path fill="#FFFFFF" d="M1067,384.045C1067,172.43,894.57,0,682.955,0S299,172.43,299,384.045
		c0,116.557,52.882,221.411,135.15,291.889c0.998,0.998,1.995,1.995,3.9,2.903C504.628,734.711,589.891,768,683.953,768
		c92.066,0,177.329-33.289,243.906-87.168c3.9-0.998,6.893-3.9,8.798-6.893C1016.115,602.463,1067,499.604,1067,384.045z
		 M334.284,384.045c0-192.023,156.739-348.761,348.761-348.761s348.761,156.739,348.761,348.761
		c0,94.061-37.189,179.233-97.961,242.002c-9.796-46.079-39.184-124.447-129.345-175.332c20.59-25.488,32.291-58.777,32.291-94.061
		c0-84.265-68.573-152.838-152.838-152.838s-152.838,68.573-152.838,152.838c0,35.284,12.698,67.575,32.291,94.061
		c-90.977,50.885-120.365,129.255-129.165,175.332C372.471,564.277,334.284,478.106,334.284,384.045z M565.491,357.559
		c0-64.673,52.882-117.554,117.554-117.554s117.554,52.882,117.554,117.554s-52.882,117.554-117.554,117.554
		S565.491,422.232,565.491,357.559z M465.534,656.343c1.995-28.391,17.596-124.447,123.45-178.327
		c26.486,20.59,58.777,32.291,94.061,32.291c35.284,0,68.573-12.698,95.059-33.289c104.855,53.879,121.454,147.94,124.447,178.327
		c-59.775,47.984-136.148,77.371-218.418,77.371C600.776,732.806,525.309,704.415,465.534,656.343z"/>
</g>
</svg>
